<?xml version="1.0" encoding="UTF-8"?>
<svg width="40px" height="36px" viewBox="0 0 40 36" version="1.1" xmlns="http://www.w3.org/2000/svg" xmlns:xlink="http://www.w3.org/1999/xlink">
    <g stroke="none" stroke-width="1" fill="none" fill-rule="evenodd">
        <g transform="translate(-1372.000000, -684.000000)" fill="#fff">
            <g transform="translate(1360.000000, 672.000000)">
                <g transform="translate(12.000000, 12.000000)">
                    <path d="M35.1112727,7.07070707 L33.8183434,5.77777778 L32.4850101,4.44444444 C32.0001616,4 31.2320808,3.91919192 30.6668283,4.32323232 L27.6365253,6.50505051 C26.383596,5.77777778 25.0506667,5.21212121 23.6365253,4.84848485 L23.0304646,1.17171717 C22.9092525,0.484848485 22.3031919,-5.74175948e-15 21.6563232,-5.74175948e-15 L19.7981414,-5.74175948e-15 L17.9395556,-5.74175948e-15 C17.2526869,-5.74175948e-15 16.6466263,0.484848485 16.5658182,1.17171717 L15.9193535,4.84848485 C14.5052121,5.21212121 13.1314747,5.77777778 11.8381414,6.54545455 L8.84864646,4.44444444 C8.2829899,4.04040404 7.51531313,4.12121212 7.03046465,4.60606061 L5.73753535,5.8989899 L4.44460606,7.19191919 C3.95935354,7.67676768 3.87894949,8.44444444 4.2829899,9.01010101 L6.46480808,12.0808081 C5.73753535,13.3333333 5.21228283,14.7070707 4.84864646,16.0808081 L1.17187879,16.6464646 C0.485010101,16.7676768 0.000161616162,17.3737374 0.000161616162,18.020202 L0.000161616162,19.8787879 L0.000161616162,21.7373737 C0.000161616162,22.4242424 0.485010101,23.030303 1.17187879,23.1111111 L4.88905051,23.7171717 C5.25268687,25.0909091 5.81834343,26.4242424 6.58561616,27.6767677 L4.44460606,30.7070707 C4.04056566,31.2727273 4.12137374,32.040404 4.60622222,32.5252525 L5.89915152,33.8181818 L7.19167677,35.1111111 C7.67692929,35.5959596 8.44460606,35.6767677 9.00985859,35.2727273 L12.0809697,33.0909091 C12.363798,33.2525253 12.6462222,33.4141414 12.9698586,33.5757576 C13.0502626,33.6161616 13.1314747,33.6565657 13.2122828,33.6969697 C13.454303,33.8181818 13.6971313,33.9393939 13.9395556,34.020202 C13.9799596,34.0606061 14.0603636,34.0606061 14.1011717,34.1010101 C14.424404,34.2222222 14.7072323,34.3434343 15.0304646,34.4242424 L15.0704646,34.4242424 C15.394101,34.5454545 15.7173333,34.6262626 16.0001616,34.7070707 C16.2021818,34.7474747 16.404202,34.7878788 16.6062222,34.8282828 L16.6062222,28.1616162 C16.6062222,26.9494949 16.0805657,25.8181818 15.1516768,25.0505051 C13.6163232,23.7171717 12.6462222,21.7373737 12.6462222,19.5151515 C12.6462222,16.8484848 14.0603636,14.5050505 16.2021818,13.2121212 C16.363798,13.1313131 16.5658182,13.2525253 16.5658182,13.4141414 L16.5658182,17.6161616 C16.5658182,18.8686869 17.5759192,19.8787879 18.8284444,19.8787879 L20.7270303,19.8787879 C21.9799596,19.8787879 22.9900606,18.8686869 22.9900606,17.6161616 L22.9900606,13.2121212 C22.9900606,13.0505051 23.1920808,12.9292929 23.3132929,13.010101 C25.6967273,14.2222222 27.3128889,16.6868687 27.3128889,19.5151515 C27.3128889,21.8181818 26.2223838,23.8787879 24.5654141,25.2525253 C23.5553131,26.0606061 22.9492525,27.2323232 22.9492525,28.5252525 L22.9492525,34.9090909 C23.1920808,34.8686869 23.4745051,34.7878788 23.7173333,34.7070707 C24.0001616,34.6262626 24.3233939,34.5454545 24.6062222,34.4242424 C24.6866263,34.3838384 24.7674343,34.3838384 24.8486465,34.3434343 C25.0506667,34.2626263 25.2526869,34.1818182 25.414303,34.1414141 C25.5755152,34.1010101 25.6967273,34.020202 25.8587475,33.9393939 C25.9395556,33.8989899 26.0607677,33.8585859 26.1415758,33.8181818 C26.343596,33.7373737 26.5456162,33.6161616 26.7476364,33.5353535 C27.0304646,33.4141414 27.2728889,33.2525253 27.5557172,33.0909091 L30.5860202,35.2727273 C31.1512727,35.6767677 31.9193535,35.5959596 32.404202,35.1111111 L33.6971313,33.8181818 L34.9896566,32.5252525 C35.4745051,32.040404 35.5557172,31.2727273 35.1516768,30.7070707 L33.1314747,27.6363636 C33.8583434,26.3838384 34.424404,25.0505051 34.7876364,23.6363636 L38.4648081,22.989899 C39.1516768,22.8686869 39.6361212,22.2626263 39.6361212,21.6161616 L39.6361212,19.7575758 L39.6361212,17.8989899 C39.6361212,17.2121212 39.1516768,16.6060606 38.4648081,16.5252525 L34.7476364,15.9191919 C34.383596,14.5454545 33.8183434,13.2121212 33.0910707,11.9191919 L35.2724848,8.88888889 C35.6765253,8.32323232 35.5957172,7.55555556 35.1112727,7.07070707" id="Fill-1"></path>
                </g>
            </g>
        </g>
    </g>
</svg>
