<?xml version="1.0" encoding="UTF-8"?>
<svg width="324px" height="240px" viewBox="0 0 324 240" version="1.1" xmlns="http://www.w3.org/2000/svg" xmlns:xlink="http://www.w3.org/1999/xlink">
    <defs>
        <polygon id="path-1" points="0 0.0002 85.0109788 0.0002 85.0109788 85.0002 0 85.0002"></polygon>
    </defs>
    <g id="Page-1" stroke="none" stroke-width="1" fill="none" fill-rule="evenodd">
        <g id="Wiadomość-wysłana" transform="translate(-989.000000, -286.000000)">
            <g id="Widget-send" transform="translate(874.000000, 117.000000)">
                <g id="Ilustracja-wyslanej-wiadomosci" transform="translate(115.000000, 169.000000)">
                    <circle id="Oval" fill="#3A1A86" cx="160" cy="123" r="117"></circle>
                    <g id="Group-3" transform="translate(112.000000, 78.000000)">
                        <mask id="mask-2" fill="white">
                            <use xlink:href="#path-1"></use>
                        </mask>
                        <g id="Clip-2"></g>
                        <path d="M84.9641,3.56 L72.8141,76.41 C72.5721,77.873 71.2971,78.939 69.8141,78.92 C69.4231,78.911 69.0361,78.829 68.6741,78.68 L47.2041,69.91 L35.7241,83.91 C35.1581,84.609 34.3031,85.011 33.4041,85 C33.0621,85 32.7221,84.935 32.4041,84.81 C31.1981,84.384 30.3951,83.239 30.4041,81.96 L30.4041,65.41 L71.4041,15.18 L20.6441,59.05 L1.9041,51.37 C0.8171,50.944 0.0751,49.926 0.0041,48.76 C-0.0549,47.621 0.5231,46.542 1.5041,45.96 L80.5041,0.43 C80.9631,0.153 81.4881,0.005 82.0241,0 C82.6141,-0.001 83.1921,0.174 83.6841,0.5 C84.6721,1.182 85.1731,2.377 84.9641,3.56" id="Fill-1" fill="#FFFFFF" mask="url(#mask-2)"></path>
                    </g>
                    <circle id="Oval-Copy" fill="#FFFFFF" cx="254" cy="50" r="29"></circle>
                    <circle id="Oval-Copy-2" fill="#3A1A86" opacity="0.300000012" cx="15" cy="171" r="15"></circle>
                    <circle id="Oval-Copy-3" fill="#3A1A86" opacity="0.300000012" cx="309" cy="78" r="15"></circle>
                    <circle id="Oval-Copy-4" fill="#3A1A86" opacity="0.300000012" cx="43.5" cy="200.5" r="6.5"></circle>
                    <circle id="Oval-Copy-5" fill="#3A1A86" opacity="0.300000012" cx="238.5" cy="6.5" r="6.5"></circle>
                    <polyline id="Path-2" stroke="#02E18C" stroke-width="8" points="241 48.5453289 251.454671 59 269.454671 41"></polyline>
                </g>
            </g>
        </g>
    </g>
</svg>
